<mxfile host="Electron" modified="2024-05-09T10:13:22.565Z" agent="Mozilla/5.0 (X11; Linux x86_64) AppleWebKit/537.36 (KHTML, like Gecko) draw.io/24.2.5 Chrome/120.0.6099.109 Electron/28.1.0 Safari/537.36" etag="1oiJfPz4xr2kU6slhmw7" version="24.2.5" type="device">
  <diagram name="第 1 页" id="e2apjPScWkacLu9K6uRY">
    <mxGraphModel dx="954" dy="663" grid="1" gridSize="10" guides="1" tooltips="1" connect="1" arrows="1" fold="1" page="1" pageScale="1" pageWidth="827" pageHeight="1169" math="0" shadow="0">
      <root>
        <mxCell id="0" />
        <mxCell id="1" parent="0" />
        <mxCell id="MC8g71kEEHypaPYs7d8e-1" value="" style="pointerEvents=1;verticalLabelPosition=bottom;shadow=0;dashed=0;align=center;html=1;verticalAlign=top;shape=mxgraph.electrical.resistors.resistor_2;rotation=90;" vertex="1" parent="1">
          <mxGeometry x="310" y="240" width="100" height="20" as="geometry" />
        </mxCell>
        <mxCell id="MC8g71kEEHypaPYs7d8e-3" value="" style="pointerEvents=1;verticalLabelPosition=bottom;shadow=0;dashed=0;align=center;html=1;verticalAlign=top;shape=mxgraph.electrical.signal_sources.source;aspect=fixed;points=[[0.5,0,0],[1,0.5,0],[0.5,1,0],[0,0.5,0]];elSignalType=dc2;elSourceType=dependent;" vertex="1" parent="1">
          <mxGeometry x="200" y="220" width="60" height="60" as="geometry" />
        </mxCell>
        <mxCell id="MC8g71kEEHypaPYs7d8e-4" value="" style="pointerEvents=1;verticalLabelPosition=bottom;shadow=0;dashed=0;align=center;html=1;verticalAlign=top;shape=mxgraph.electrical.signal_sources.signal_ground;" vertex="1" parent="1">
          <mxGeometry x="137.5" y="300" width="45" height="30" as="geometry" />
        </mxCell>
        <mxCell id="MC8g71kEEHypaPYs7d8e-5" value="" style="endArrow=none;html=1;strokeWidth=1;rounded=0;entryX=1;entryY=0.5;entryDx=0;entryDy=0;entryPerimeter=0;" edge="1" parent="1" target="MC8g71kEEHypaPYs7d8e-1">
          <mxGeometry width="100" relative="1" as="geometry">
            <mxPoint x="120" y="300" as="sourcePoint" />
            <mxPoint x="360" y="320" as="targetPoint" />
          </mxGeometry>
        </mxCell>
        <mxCell id="MC8g71kEEHypaPYs7d8e-6" value="" style="endArrow=none;html=1;strokeWidth=1;rounded=0;entryX=1;entryY=0.5;entryDx=0;entryDy=0;entryPerimeter=0;exitX=0.5;exitY=0;exitDx=0;exitDy=0;exitPerimeter=0;" edge="1" parent="1" source="MC8g71kEEHypaPYs7d8e-3">
          <mxGeometry width="100" relative="1" as="geometry">
            <mxPoint x="120" y="200" as="sourcePoint" />
            <mxPoint x="360" y="200" as="targetPoint" />
            <Array as="points">
              <mxPoint x="230" y="200" />
            </Array>
          </mxGeometry>
        </mxCell>
        <mxCell id="MC8g71kEEHypaPYs7d8e-7" value="" style="endArrow=none;html=1;strokeWidth=1;rounded=0;entryX=0.5;entryY=1;entryDx=0;entryDy=0;entryPerimeter=0;" edge="1" parent="1" target="MC8g71kEEHypaPYs7d8e-3">
          <mxGeometry width="100" relative="1" as="geometry">
            <mxPoint x="230" y="300" as="sourcePoint" />
            <mxPoint x="280" y="190" as="targetPoint" />
          </mxGeometry>
        </mxCell>
        <mxCell id="MC8g71kEEHypaPYs7d8e-8" value="" style="verticalLabelPosition=bottom;shadow=0;dashed=0;align=center;html=1;verticalAlign=top;strokeWidth=1;shape=ellipse;" vertex="1" parent="1">
          <mxGeometry x="355" y="195" width="10" height="10" as="geometry" />
        </mxCell>
        <mxCell id="MC8g71kEEHypaPYs7d8e-9" value="" style="endArrow=none;html=1;strokeWidth=1;rounded=0;" edge="1" parent="1">
          <mxGeometry width="100" relative="1" as="geometry">
            <mxPoint x="80" y="199.66" as="sourcePoint" />
            <mxPoint x="120" y="199.66" as="targetPoint" />
          </mxGeometry>
        </mxCell>
        <mxCell id="MC8g71kEEHypaPYs7d8e-11" value="" style="verticalLabelPosition=bottom;shadow=0;dashed=0;align=center;html=1;verticalAlign=top;strokeWidth=1;shape=ellipse;" vertex="1" parent="1">
          <mxGeometry x="70" y="195" width="10" height="10" as="geometry" />
        </mxCell>
        <mxCell id="MC8g71kEEHypaPYs7d8e-12" value="+" style="text;html=1;align=center;verticalAlign=middle;whiteSpace=wrap;rounded=0;fontSize=20;" vertex="1" parent="1">
          <mxGeometry x="90" y="200" width="60" height="30" as="geometry" />
        </mxCell>
        <mxCell id="MC8g71kEEHypaPYs7d8e-13" value="-" style="text;html=1;align=center;verticalAlign=middle;whiteSpace=wrap;rounded=0;fontSize=20;" vertex="1" parent="1">
          <mxGeometry x="90" y="270" width="60" height="30" as="geometry" />
        </mxCell>
        <mxCell id="MC8g71kEEHypaPYs7d8e-14" value="V&lt;sup&gt;+&lt;/sup&gt;&lt;font style=&quot;font-size: 20px;&quot;&gt;&lt;sub&gt;in&lt;/sub&gt;&lt;/font&gt;" style="text;html=1;align=center;verticalAlign=middle;whiteSpace=wrap;rounded=0;fontSize=20;" vertex="1" parent="1">
          <mxGeometry x="90" y="235" width="60" height="30" as="geometry" />
        </mxCell>
        <mxCell id="MC8g71kEEHypaPYs7d8e-15" value="g&lt;sub&gt;m&lt;/sub&gt;V&lt;sub&gt;GS&lt;/sub&gt;" style="text;html=1;align=center;verticalAlign=middle;whiteSpace=wrap;rounded=0;fontSize=20;" vertex="1" parent="1">
          <mxGeometry x="260" y="235" width="60" height="30" as="geometry" />
        </mxCell>
        <mxCell id="MC8g71kEEHypaPYs7d8e-16" value="R&lt;sub&gt;D&lt;/sub&gt;" style="text;html=1;align=center;verticalAlign=middle;whiteSpace=wrap;rounded=0;fontSize=20;" vertex="1" parent="1">
          <mxGeometry x="365" y="235" width="60" height="30" as="geometry" />
        </mxCell>
        <mxCell id="MC8g71kEEHypaPYs7d8e-17" value="V&lt;sup&gt;+&lt;/sup&gt;&lt;sub&gt;out&lt;/sub&gt;" style="text;html=1;align=center;verticalAlign=middle;whiteSpace=wrap;rounded=0;fontSize=20;" vertex="1" parent="1">
          <mxGeometry x="365" y="185" width="60" height="30" as="geometry" />
        </mxCell>
        <mxCell id="MC8g71kEEHypaPYs7d8e-18" value="" style="pointerEvents=1;verticalLabelPosition=bottom;shadow=0;dashed=0;align=center;html=1;verticalAlign=top;shape=mxgraph.electrical.resistors.resistor_2;rotation=90;flipH=0;" vertex="1" parent="1">
          <mxGeometry x="445" y="240" width="100" height="20" as="geometry" />
        </mxCell>
        <mxCell id="MC8g71kEEHypaPYs7d8e-19" value="" style="pointerEvents=1;verticalLabelPosition=bottom;shadow=0;dashed=0;align=center;html=1;verticalAlign=top;shape=mxgraph.electrical.signal_sources.source;aspect=fixed;points=[[0.5,0,0],[1,0.5,0],[0.5,1,0],[0,0.5,0]];elSignalType=dc2;elSourceType=dependent;flipH=0;" vertex="1" parent="1">
          <mxGeometry x="595" y="220" width="60" height="60" as="geometry" />
        </mxCell>
        <mxCell id="MC8g71kEEHypaPYs7d8e-20" value="" style="pointerEvents=1;verticalLabelPosition=bottom;shadow=0;dashed=0;align=center;html=1;verticalAlign=top;shape=mxgraph.electrical.signal_sources.signal_ground;flipH=0;" vertex="1" parent="1">
          <mxGeometry x="672.5" y="300" width="45" height="30" as="geometry" />
        </mxCell>
        <mxCell id="MC8g71kEEHypaPYs7d8e-21" value="" style="endArrow=none;html=1;strokeWidth=1;rounded=0;entryX=1;entryY=0.5;entryDx=0;entryDy=0;entryPerimeter=0;" edge="1" parent="1" target="MC8g71kEEHypaPYs7d8e-18">
          <mxGeometry width="100" relative="1" as="geometry">
            <mxPoint x="494.1666666666665" y="300" as="sourcePoint" />
            <mxPoint x="254.16666666666652" y="320" as="targetPoint" />
          </mxGeometry>
        </mxCell>
        <mxCell id="MC8g71kEEHypaPYs7d8e-22" value="" style="endArrow=none;html=1;strokeWidth=1;rounded=0;entryX=1;entryY=0.5;entryDx=0;entryDy=0;entryPerimeter=0;exitX=0.5;exitY=0;exitDx=0;exitDy=0;exitPerimeter=0;" edge="1" parent="1" source="MC8g71kEEHypaPYs7d8e-19">
          <mxGeometry width="100" relative="1" as="geometry">
            <mxPoint x="735" y="200" as="sourcePoint" />
            <mxPoint x="495" y="200" as="targetPoint" />
            <Array as="points">
              <mxPoint x="625" y="200" />
            </Array>
          </mxGeometry>
        </mxCell>
        <mxCell id="MC8g71kEEHypaPYs7d8e-23" value="" style="endArrow=none;html=1;strokeWidth=1;rounded=0;entryX=0.5;entryY=1;entryDx=0;entryDy=0;entryPerimeter=0;" edge="1" parent="1" target="MC8g71kEEHypaPYs7d8e-19">
          <mxGeometry width="100" relative="1" as="geometry">
            <mxPoint x="625" y="300" as="sourcePoint" />
            <mxPoint x="575" y="190" as="targetPoint" />
          </mxGeometry>
        </mxCell>
        <mxCell id="MC8g71kEEHypaPYs7d8e-24" value="" style="verticalLabelPosition=bottom;shadow=0;dashed=0;align=center;html=1;verticalAlign=top;strokeWidth=1;shape=ellipse;flipH=0;" vertex="1" parent="1">
          <mxGeometry x="490" y="195" width="10" height="10" as="geometry" />
        </mxCell>
        <mxCell id="MC8g71kEEHypaPYs7d8e-25" value="" style="endArrow=none;html=1;strokeWidth=1;rounded=0;" edge="1" parent="1">
          <mxGeometry width="100" relative="1" as="geometry">
            <mxPoint x="775" y="199.66" as="sourcePoint" />
            <mxPoint x="735" y="199.66" as="targetPoint" />
          </mxGeometry>
        </mxCell>
        <mxCell id="MC8g71kEEHypaPYs7d8e-26" value="" style="verticalLabelPosition=bottom;shadow=0;dashed=0;align=center;html=1;verticalAlign=top;strokeWidth=1;shape=ellipse;flipH=0;" vertex="1" parent="1">
          <mxGeometry x="775" y="195" width="10" height="10" as="geometry" />
        </mxCell>
        <mxCell id="MC8g71kEEHypaPYs7d8e-27" value="+" style="text;html=1;align=center;verticalAlign=middle;whiteSpace=wrap;rounded=0;fontSize=20;flipH=0;" vertex="1" parent="1">
          <mxGeometry x="705" y="200" width="60" height="30" as="geometry" />
        </mxCell>
        <mxCell id="MC8g71kEEHypaPYs7d8e-28" value="-" style="text;html=1;align=center;verticalAlign=middle;whiteSpace=wrap;rounded=0;fontSize=20;flipH=0;" vertex="1" parent="1">
          <mxGeometry x="705" y="270" width="60" height="30" as="geometry" />
        </mxCell>
        <mxCell id="MC8g71kEEHypaPYs7d8e-29" value="V&lt;sup&gt;-&lt;/sup&gt;&lt;font style=&quot;font-size: 20px;&quot;&gt;&lt;sub&gt;in&lt;/sub&gt;&lt;/font&gt;" style="text;html=1;align=center;verticalAlign=middle;whiteSpace=wrap;rounded=0;fontSize=20;flipH=0;" vertex="1" parent="1">
          <mxGeometry x="705" y="235" width="60" height="30" as="geometry" />
        </mxCell>
        <mxCell id="MC8g71kEEHypaPYs7d8e-30" value="g&lt;sub&gt;m&lt;/sub&gt;V&lt;sub&gt;GS&lt;/sub&gt;" style="text;html=1;align=center;verticalAlign=middle;whiteSpace=wrap;rounded=0;fontSize=20;flipH=0;" vertex="1" parent="1">
          <mxGeometry x="535" y="235" width="60" height="30" as="geometry" />
        </mxCell>
        <mxCell id="MC8g71kEEHypaPYs7d8e-31" value="R&lt;sub&gt;D&lt;/sub&gt;" style="text;html=1;align=center;verticalAlign=middle;whiteSpace=wrap;rounded=0;fontSize=20;flipH=0;" vertex="1" parent="1">
          <mxGeometry x="430" y="235" width="60" height="30" as="geometry" />
        </mxCell>
        <mxCell id="MC8g71kEEHypaPYs7d8e-32" value="V&lt;sup&gt;-&lt;/sup&gt;&lt;sub&gt;out&lt;/sub&gt;" style="text;html=1;align=center;verticalAlign=middle;whiteSpace=wrap;rounded=0;fontSize=20;flipH=0;" vertex="1" parent="1">
          <mxGeometry x="430" y="185" width="60" height="30" as="geometry" />
        </mxCell>
        <mxCell id="MC8g71kEEHypaPYs7d8e-34" value="" style="endArrow=none;html=1;strokeWidth=1;rounded=0;exitX=1;exitY=0.5;exitDx=0;exitDy=0;exitPerimeter=0;" edge="1" parent="1" source="MC8g71kEEHypaPYs7d8e-18">
          <mxGeometry width="100" relative="1" as="geometry">
            <mxPoint x="620" y="280" as="sourcePoint" />
            <mxPoint x="740" y="300" as="targetPoint" />
          </mxGeometry>
        </mxCell>
      </root>
    </mxGraphModel>
  </diagram>
</mxfile>
